<svg xmlns="http://www.w3.org/2000/svg" data-name="Layer 1" viewBox="0 0 512 512"><rect width="359" height="453" x="76.5" y="51.5" fill="#b28b6a" rx="30"/><path fill="#a17855" d="M405.5 51.5h-30a30 30 0 0 1 30 30v393a30 30 0 0 1-30 30h30a30 30 0 0 0 30-30v-393a30 30 0 0 0-30-30Z"/><path fill="#fff" d="M116.5 444.5v-333a20 20 0 0 1 20-20h239a20 20 0 0 1 20 20v293l-60 60h-199a20 20 0 0 1-20-20Z"/><path fill="#e1e1e3" d="M335.5 464.5v-50a10 10 0 0 1 10-10h50M230.413 152.991H167.5a6 6 0 0 0-6 6V223.5a6 6 0 0 0 6 6h62.913m0 58.491H167.5a6 6 0 0 0-6 6V358.5a6 6 0 0 0 6 6h62.913"/><path fill="#c8c5cc" d="M296.904 37.954a10.616 10.616 0 0 1-10.094-7.662 32.22 32.22 0 0 0-61.62 0 10.616 10.616 0 0 1-10.094 7.662h-15.643a10.803 10.803 0 0 0-10.803 10.803v43.522a10.803 10.803 0 0 0 10.803 10.803h113.094A10.803 10.803 0 0 0 323.35 92.28V48.757a10.803 10.803 0 0 0-10.803-10.803Z"/><path fill="#aeadb3" d="M312.547 37.954h-15.643a10.616 10.616 0 0 1-10.094-7.662 32.236 32.236 0 0 0-43.603-20.15 32.297 32.297 0 0 1 18.016 20.15 10.616 10.616 0 0 0 10.094 7.662h15.643a10.803 10.803 0 0 1 10.803 10.803v43.522a10.803 10.803 0 0 1-10.803 10.803h25.587A10.803 10.803 0 0 0 323.35 92.28V48.757a10.803 10.803 0 0 0-10.803-10.803Z"/><path fill="#3c3b41" d="M287.5 183.746h63a7.5 7.5 0 0 0 0-15h-63a7.5 7.5 0 0 0 0 15ZM256 46.5a7.5 7.5 0 1 0-7.5-7.5 7.5 7.5 0 0 0 7.5 7.5Zm.128 243.18-40.73 40.73-12.729-12.727a7.5 7.5 0 0 0-10.606 10.606l18.031 18.031a7.5 7.5 0 0 0 10.607 0l46.033-46.034a7.5 7.5 0 0 0-10.606-10.606Zm31.372-75.934h63a7.5 7.5 0 0 0 0-15h-63a7.5 7.5 0 0 0 0 15Zm0 135h63a7.5 7.5 0 0 0 0-15h-63a7.5 7.5 0 0 0 0 15ZM161.5 372h68.913a7.5 7.5 0 0 0 0-15H169v-61.509h61.413a7.5 7.5 0 0 0 0-15H161.5a7.5 7.5 0 0 0-7.5 7.5V364.5a7.5 7.5 0 0 0 7.5 7.5Zm126-53.254h63a7.5 7.5 0 0 0 0-15h-63a7.5 7.5 0 0 0 0 15ZM161.5 237h68.913a7.5 7.5 0 0 0 0-15H169v-61.509h61.413a7.5 7.5 0 0 0 0-15H161.5a7.5 7.5 0 0 0-7.5 7.5V229.5a7.5 7.5 0 0 0 7.5 7.5Zm244-193h-75.299a18.32 18.32 0 0 0-17.654-13.546h-15.643a3.143 3.143 0 0 1-2.921-2.352 39.72 39.72 0 0 0-75.966 0 3.143 3.143 0 0 1-2.92 2.352h-15.644A18.32 18.32 0 0 0 181.799 44H106.5A37.542 37.542 0 0 0 69 81.5v393a37.542 37.542 0 0 0 37.5 37.5h299a37.542 37.542 0 0 0 37.5-37.5v-393A37.542 37.542 0 0 0 405.5 44Zm-209.35 4.757a3.306 3.306 0 0 1 3.303-3.303h15.643a18.054 18.054 0 0 0 17.268-12.972 24.72 24.72 0 0 1 47.272 0 18.054 18.054 0 0 0 17.268 12.972h15.643a3.306 3.306 0 0 1 3.303 3.303v43.522a3.306 3.306 0 0 1-3.303 3.303H199.453a3.306 3.306 0 0 1-3.303-3.303ZM182.445 99a18.32 18.32 0 0 0 17.008 11.582h113.094A18.32 18.32 0 0 0 329.555 99H375.5a12.514 12.514 0 0 1 12.5 12.5V397h-42.5a17.52 17.52 0 0 0-17.5 17.5V457H136.5a12.514 12.514 0 0 1-12.5-12.5v-333A12.514 12.514 0 0 1 136.5 99Zm194.949 313L343 446.394V414.5a2.503 2.503 0 0 1 2.5-2.5ZM428 474.5a22.525 22.525 0 0 1-22.5 22.5h-299A22.525 22.525 0 0 1 84 474.5v-393A22.525 22.525 0 0 1 106.5 59h74.65v25H136.5a27.531 27.531 0 0 0-27.5 27.5v333a27.531 27.531 0 0 0 27.5 27.5h199q.377 0 .749-.038c.181-.018.359-.05.536-.08.064-.011.128-.016.192-.03.21-.041.415-.095.618-.155.03-.008.061-.014.091-.023.207-.063.41-.138.608-.218.027-.01.055-.018.082-.03a7.46 7.46 0 0 0 .552-.26c.037-.02.075-.035.112-.054.167-.09.326-.19.485-.29.048-.031.098-.057.145-.089a7.53 7.53 0 0 0 .439-.324c.05-.04.102-.073.15-.114q.285-.233.546-.493l59.997-59.997q.26-.26.493-.545c.04-.049.075-.102.114-.151.111-.144.223-.287.324-.439.032-.047.058-.097.088-.145.102-.158.201-.318.29-.485.02-.037.036-.075.054-.112.094-.18.183-.363.261-.552.012-.027.02-.055.03-.082.08-.199.155-.4.218-.608.01-.03.015-.06.023-.09.06-.204.114-.41.156-.62.013-.063.018-.127.03-.19.03-.178.061-.356.08-.537q.036-.372.037-.749v-293A27.531 27.531 0 0 0 375.5 84h-44.65V59h74.65A22.525 22.525 0 0 1 428 81.5ZM202.67 182.683a7.5 7.5 0 0 0-10.607 10.606l18.031 18.031a7.5 7.5 0 0 0 10.607 0l46.033-46.034a7.5 7.5 0 0 0-10.606-10.606l-40.73 40.73Z"/></svg>